<svg width="159" height="62" viewBox="0 0 159 62" fill="none" xmlns="http://www.w3.org/2000/svg">
<path d="M51.3796 42.5132C41.4091 40.0519 30.4851 39.6199 26.0115 39.6199C21.538 39.6199 10.6217 40.0442 0.643505 42.5132C0.643505 42.5132 0.643505 42.5132 0.643505 42.5055C0.635752 42.5055 0.627999 42.5055 0.620246 42.5132C0.193827 45.0285 0 47.0501 0 47.0501C0.721036 48.1148 1.87624 49.3802 2.93841 50.2521C14.6921 47.1581 25.934 47.4127 25.934 47.4127C25.934 47.4127 37.1682 47.1581 48.9296 50.2521C49.767 49.6657 51.1392 48.2305 51.9998 47.0501C52.0076 47.0501 51.8138 45.0517 51.3796 42.5132Z" fill="white"/>
<path d="M50.8057 38.3931C50.325 33.6634 49.9451 24.4354 51.1934 8.41002C51.1934 8.41002 36.7416 11.0179 26.0036 0.0153809H25.9881C15.2579 11.0102 0.806152 8.4023 0.806152 8.4023C2.0544 24.3506 1.6745 33.5708 1.20156 38.3159C1.3101 38.3159 1.43415 38.3159 1.55045 38.3082C10.482 36.279 18.7778 35.5383 26.0114 35.5074C33.338 35.546 41.7501 36.3021 50.8057 38.3931Z" fill="#CCCCCC"/>
<path d="M25.9341 47.4205C25.9341 47.4205 14.6921 47.1659 2.93848 50.2599C2.93848 50.2599 13.8315 58.6931 25.9341 61.0155C38.0366 58.6931 48.9297 50.2599 48.9297 50.2599C37.176 47.1582 25.9341 47.4205 25.9341 47.4205Z" fill="#004C98"/>
<path d="M2.65918 44.4884L4.51992 44.0332L4.65172 44.5579L3.4655 44.8433L3.66708 45.6612L4.79903 45.3834L4.93083 45.9081L3.79888 46.1859L4.15552 47.6441L3.48876 47.8062L2.65918 44.4884Z" fill="#004C98"/>
<path d="M5.14812 44.8202L5.79162 44.6813L6.33434 47.1503L5.69083 47.2892L5.14812 44.8202ZM4.91553 43.7631L5.55903 43.6243L5.69083 44.2338L5.05508 44.3727L4.91553 43.7631Z" fill="#004C98"/>
<path d="M6.40381 44.5502L6.97754 44.4345L7.09383 44.9977H7.10158C7.08608 44.7586 7.27215 44.3188 7.65981 44.2416C7.72183 44.2262 7.79161 44.2185 7.86139 44.2262L7.99319 44.8743C7.93116 44.8511 7.80711 44.8589 7.69082 44.882C7.16361 44.99 7.29541 45.6381 7.36519 45.9931L7.55126 46.9035L6.9 47.027L6.40381 44.5502Z" fill="#004C98"/>
<path d="M8.72995 45.1367C8.69894 44.7972 8.8385 44.5117 9.20289 44.45C9.56728 44.3882 9.76111 44.6351 9.83864 44.9438L8.72995 45.1367ZM10.4201 45.6845C10.203 45.8619 9.94719 46.024 9.63706 46.078C9.2339 46.1474 8.91603 45.97 8.81524 45.5765L10.5442 45.2755C10.3891 44.4037 10.017 43.8173 9.08659 43.9793C8.31129 44.1182 8.03218 44.774 8.15623 45.4916C8.29578 46.3094 8.86176 46.6952 9.69133 46.5563C10.0402 46.4946 10.3038 46.3789 10.5132 46.2091L10.4201 45.6845Z" fill="#004C98"/>
<path d="M13.9556 45.2061C13.8238 45.3758 13.6145 45.4607 13.3819 45.4916C13.064 45.5302 12.7771 45.3604 12.7384 45.0595C12.6996 44.7895 12.8702 44.612 13.0795 44.4654L13.9556 45.2061ZM13.157 43.8019C13.0097 43.6861 12.8004 43.555 12.7694 43.3621C12.7384 43.1152 12.9167 42.9763 13.1105 42.9531C13.3044 42.93 13.4982 43.0149 13.5292 43.254C13.568 43.4546 13.3199 43.6861 13.157 43.8019ZM13.5835 44.1028C13.9246 43.8404 14.1882 43.5858 14.1262 43.1229C14.0564 42.5751 13.5214 42.4208 13.0407 42.4825C12.5601 42.5442 12.0406 42.876 12.1026 43.3852C12.1491 43.771 12.3895 43.9253 12.6841 44.1413C12.1724 44.4423 12.0329 44.7586 12.0871 45.1675C12.1724 45.8079 12.7539 46.0857 13.4362 46.0008C13.7773 45.9545 14.1107 45.7925 14.32 45.5224L14.5914 45.7925L15.4287 45.6845L14.7309 45.0749C14.9635 44.7123 15.0488 44.2879 15.0178 43.8559L14.4208 43.933C14.4441 44.1954 14.4441 44.4885 14.3045 44.7046L13.5835 44.1028Z" fill="#004C98"/>
<path d="M17.3202 42.6058L17.545 42.5904C17.8861 42.5595 18.2738 42.5672 18.3126 42.9762C18.3436 43.4005 17.9637 43.4854 17.6225 43.5085L17.3977 43.524L17.3202 42.6058ZM16.8705 45.5378L17.5605 45.476L17.4442 44.0641L17.669 44.0409C17.9559 44.0178 18.0567 44.1104 18.173 44.3573L18.6769 45.3912L19.4445 45.3294L18.7777 44.0409C18.7002 43.8943 18.5762 43.7169 18.3901 43.7169V43.7091C18.8243 43.6166 19.0646 43.2616 19.0336 42.8604C18.9561 41.9114 18.0722 42.0117 17.3434 42.0734L16.5991 42.1352L16.8705 45.5378Z" fill="#004C98"/>
<path d="M20.1114 43.7787C20.1192 43.4393 20.2975 43.1769 20.6619 43.1538C21.034 43.1383 21.1969 43.4007 21.2279 43.717L20.1114 43.7787ZM21.7241 44.5194C21.4837 44.6738 21.2201 44.8049 20.8945 44.8204C20.4836 44.8435 20.189 44.6275 20.1347 44.2263L21.8869 44.126C21.8404 43.2464 21.538 42.6214 20.5921 42.6677C19.8013 42.714 19.4524 43.339 19.4912 44.0642C19.5377 44.8898 20.0494 45.345 20.8867 45.2987C21.2434 45.2756 21.5147 45.1984 21.7473 45.0518L21.7241 44.5194Z" fill="#004C98"/>
<path d="M23.763 43.1384C23.5615 43.0766 23.4142 43.0381 23.1661 43.0458C22.9877 43.0535 22.7784 43.1229 22.7862 43.339C22.7939 43.7402 23.9414 43.4547 23.9646 44.3651C23.9879 44.9515 23.4607 45.2062 22.9257 45.2216C22.6776 45.2293 22.414 45.1907 22.1737 45.1367L22.1969 44.5966C22.4063 44.6969 22.6233 44.7509 22.8559 44.7432C23.0187 44.7355 23.2824 44.6661 23.2824 44.4192C23.2668 43.9254 22.1271 44.2957 22.1039 43.3853C22.0884 42.8452 22.5613 42.5828 23.073 42.5674C23.3831 42.5597 23.5847 42.5983 23.7941 42.6368L23.763 43.1384Z" fill="#004C98"/>
<path d="M25.9803 43.1306C25.864 43.0766 25.7322 43.038 25.5306 43.038C25.1197 43.038 24.8639 43.3621 24.8639 43.8405C24.8639 44.3034 25.0887 44.6583 25.5539 44.6583C25.7399 44.6583 25.9493 44.5889 26.0578 44.5349L26.0888 45.0827C25.895 45.1444 25.7012 45.1676 25.4298 45.1676C24.6002 45.1753 24.1738 44.612 24.1738 43.8405C24.1738 43.1075 24.6002 42.5288 25.3988 42.5288C25.6624 42.5288 25.8562 42.552 26.0423 42.606L25.9803 43.1306Z" fill="#004C98"/>
<path d="M28.7251 45.1444L28.0971 45.1366L28.1049 44.7972H28.0971C27.8878 45.0363 27.6009 45.1907 27.2598 45.1829C26.6551 45.1752 26.407 44.7509 26.4147 44.1799L26.438 42.5828L27.097 42.5905L27.0737 43.9407C27.066 44.2493 27.066 44.666 27.4924 44.6737C27.9731 44.6814 28.0816 44.1645 28.0894 43.8481L28.1049 42.6136L28.7639 42.6213L28.7251 45.1444Z" fill="#004C98"/>
<path d="M29.8259 43.6783C29.8724 43.3388 30.074 43.0919 30.4384 43.1151C30.8106 43.1305 30.9424 43.416 30.9501 43.7323L29.8259 43.6783ZM31.3455 44.5811C31.0897 44.7045 30.8106 44.8125 30.4927 44.7971C30.0818 44.7739 29.8104 44.5348 29.8027 44.1258L31.5549 44.2107C31.5936 43.3311 31.361 42.6753 30.4229 42.629C29.6321 42.5904 29.2212 43.1768 29.1824 43.9021C29.1437 44.7277 29.6088 45.2292 30.4462 45.2755C30.8028 45.2909 31.0819 45.2369 31.33 45.1134L31.3455 44.5811Z" fill="#004C98"/>
<path d="M35.3771 42.7678C35.1678 42.6598 34.9352 42.5826 34.6949 42.5595C34.4623 42.544 34.1444 42.6135 34.1134 42.9838C34.0591 43.5779 35.5865 43.4545 35.4857 44.6041C35.4159 45.3525 34.8034 45.584 34.1056 45.5223C33.7335 45.4914 33.5707 45.422 33.2373 45.314L33.3536 44.7044C33.5784 44.851 33.842 44.959 34.1134 44.9822C34.377 45.0053 34.7336 44.905 34.7647 44.5964C34.8267 43.9483 33.2993 44.0794 33.4001 42.953C33.4699 42.1891 34.0824 41.9654 34.6949 42.0194C34.9895 42.0425 35.2609 42.112 35.5012 42.2123L35.3771 42.7678Z" fill="#004C98"/>
<path d="M36.5714 44.1877C36.6412 43.8559 36.8582 43.6245 37.2226 43.663C37.587 43.7093 37.7033 43.9948 37.6878 44.3111L36.5714 44.1877ZM38.0367 45.1985C37.7731 45.3065 37.4862 45.3913 37.1684 45.3528C36.7652 45.3065 36.5016 45.0441 36.5249 44.6352L38.2693 44.8358C38.3701 43.9562 38.184 43.2927 37.2459 43.1847C36.4628 43.0921 36.0054 43.6476 35.9201 44.3729C35.8193 45.1985 36.2535 45.7308 37.0831 45.8234C37.432 45.862 37.7188 45.8234 37.9747 45.7231L38.0367 45.1985Z" fill="#004C98"/>
<path d="M38.9978 43.4624L39.5792 43.5396L39.5017 44.1028H39.5095C39.5715 43.8713 39.8971 43.5164 40.2848 43.5704C40.3468 43.5781 40.4166 43.5859 40.4786 43.6167L40.3856 44.2725C40.3313 44.234 40.215 44.1954 40.0987 44.18C39.5637 44.1028 39.4707 44.7663 39.4242 45.1213L39.2924 46.0394L38.6411 45.9468L38.9978 43.4624Z" fill="#004C98"/>
<path d="M40.6494 43.686L41.3472 43.8018L41.6651 45.723H41.6728L42.5799 44.0101L43.2312 44.1181L41.8899 46.456L41.1534 46.3325L40.6494 43.686Z" fill="#004C98"/>
<path d="M43.6809 44.2031L44.3322 44.3265L43.8593 46.811L43.208 46.6875L43.6809 44.2031ZM43.8825 43.1306L44.5338 43.2541L44.4175 43.8713L43.7662 43.7479L43.8825 43.1306Z" fill="#004C98"/>
<path d="M46.5416 45.3373C46.4331 45.2601 46.3168 45.1984 46.123 45.1521C45.7198 45.0672 45.4019 45.3296 45.3011 45.7925C45.2003 46.2477 45.3476 46.6412 45.7973 46.7415C45.9834 46.7801 46.2005 46.757 46.3168 46.7338L46.2315 47.2739C46.0299 47.2893 45.8361 47.2739 45.5725 47.2199C44.7584 47.0502 44.4638 46.4098 44.6266 45.6536C44.7817 44.9361 45.3244 44.4654 46.0997 44.6274C46.3555 44.6815 46.5416 44.7509 46.7044 44.8435L46.5416 45.3373Z" fill="#004C98"/>
<path d="M47.4489 46.0316C47.5574 45.7076 47.7978 45.507 48.1622 45.5918C48.5188 45.6767 48.5963 45.9776 48.5421 46.294L47.4489 46.0316ZM48.7747 47.2121C48.5033 47.2893 48.2087 47.3356 47.8986 47.2584C47.5032 47.1658 47.2783 46.8726 47.3481 46.4714L49.0538 46.8881C49.2631 46.0316 49.1623 45.3449 48.2475 45.1212C47.4799 44.936 46.9604 45.4298 46.7899 46.1396C46.5883 46.9498 46.9527 47.5285 47.7668 47.7291C48.1079 47.8139 48.3948 47.8139 48.6584 47.7368L48.7747 47.2121Z" fill="#004C98"/>
<path d="M21.5925 23.8955C21.5925 23.8955 21.3289 23.8955 21.1273 23.8955C21.1273 23.556 21.1273 23.201 21.1273 23.201C21.1273 22.4295 20.4916 21.7968 19.7163 21.7968H18.6541C18.1036 21.7968 17.6617 22.2366 17.6617 22.7844V25.6469L15.2583 25.6623V24.5667C15.2583 23.1702 14.8086 22.5915 14.6148 22.4063C14.4287 22.2289 14.1806 22.1363 13.9325 22.1363H12.4982C12.2113 22.1363 11.9555 22.2829 11.7771 22.5144C11.6298 22.4218 11.4593 22.3678 11.2654 22.3678C11.2654 22.3678 9.95516 22.3678 9.14109 22.3678C9.02479 22.1209 8.90074 21.9588 8.80771 21.874C8.62163 21.6965 8.37354 21.5962 8.11769 21.5962H6.58258C6.20268 21.5962 5.8848 21.8431 5.72199 22.1826C5.69097 22.2366 5.69873 22.306 5.68322 22.3678C4.83814 22.3678 3.92327 22.3678 3.92327 22.3678C3.37281 22.3678 2.93088 22.8076 2.93088 23.3554V24.4356C2.93088 24.6362 3.00066 24.8136 3.1092 24.9679C2.92313 25.1454 2.80683 25.3923 2.80683 25.6701V26.1099C2.28738 26.1407 1.87646 26.5651 1.87646 27.0897V28.1699C1.87646 28.7177 2.31839 29.1575 2.86886 29.1575C2.86886 29.1575 3.57439 29.1575 4.1016 29.1575C3.76821 29.6436 3.58214 30.2146 3.58214 30.8318C3.58214 32.7145 5.30332 34.1341 7.59048 34.1341C9.87763 34.1341 11.5988 32.7145 11.5988 30.8318C11.5988 30.2146 11.4127 29.6436 11.0794 29.1575C11.6066 29.1575 12.3121 29.1575 12.3121 29.1575C12.7385 29.1575 13.0952 28.8875 13.2425 28.5171C13.258 28.5249 13.2657 28.5326 13.2735 28.5326V31.4568C13.2735 32.7762 14.3589 33.8564 15.6847 33.8564H20.1349C20.6854 33.8564 21.1273 33.4166 21.1273 32.8688V26.9586H21.5925C22.143 26.9586 22.5849 26.5188 22.5849 25.971V24.8985C22.5849 24.3353 22.1352 23.8955 21.5925 23.8955ZM7.58272 31.0633C7.21058 31.0633 7.03226 30.8704 7.0245 30.8241C7.04001 30.7701 7.23384 30.5927 7.58272 30.5927C7.93936 30.5927 8.12544 30.7701 8.14094 30.8318C8.13319 30.8781 7.94712 31.0633 7.58272 31.0633ZM17.6617 30.7933C17.212 30.7933 17.057 30.7933 16.7313 30.7933C16.7313 30.6698 16.7313 30.6544 16.7313 30.5155C17.15 30.5155 17.243 30.5155 17.6617 30.5155C17.6617 30.6544 17.6617 30.6544 17.6617 30.7933Z" fill="white"/>
<path d="M35.1293 22.0359H30.462C30.2991 22.0359 30.1363 22.0899 29.9968 22.167C29.8107 22.0667 29.5704 22.0359 29.361 22.0359H24.6937C24.3138 22.0359 23.9571 22.2596 23.7943 22.5991L23.3601 23.5173C23.2206 23.8105 23.2283 24.1422 23.4222 24.4509C23.5695 24.6746 23.8098 24.8058 24.0657 24.8598L20.9179 32.4983C20.7939 32.7992 20.8326 33.1387 21.011 33.4087C21.1893 33.6788 21.4994 33.8408 21.8173 33.8408H26.1357C26.4149 33.8408 26.6785 33.7174 26.8568 33.5168C27.0429 33.7174 27.2987 33.8408 27.5778 33.8408H31.8963C32.2917 33.8408 32.6406 33.6016 32.7956 33.2467L34.8192 28.4321C35.3309 29.3966 36.5946 29.9984 37.8816 29.9135L36.3776 32.3826C36.1915 32.6835 36.1837 33.0538 36.362 33.3625C36.5326 33.6711 36.8582 33.8563 37.2149 33.8563H42.1381C42.4792 33.8563 42.7893 33.6788 42.9677 33.3933L48.9298 23.7256C49.7981 22.4062 50.868 19.3662 48.5576 17.5299C46.9527 16.1411 43.867 16.0022 40.13 18.2089C38.4244 19.1425 36.8815 20.5004 35.703 22.1207C35.5325 22.0667 35.2844 22.0359 35.1293 22.0359Z" fill="white"/>
<path d="M42.5722 32.1897H37.649L37.2148 32.8841H42.138L42.5722 32.1897Z" fill="#E60012"/>
<path d="M8.11723 22.5837C8.11723 22.5837 8.31106 22.7689 8.40409 23.3553H11.2572V24.4355H8.47387C8.82276 25.1299 9.98572 25.67 11.1254 25.67H11.3813V26.7425H11.1254C9.72211 26.7425 8.14824 26.2332 7.58227 25.5697C7.01629 26.2332 5.44242 26.7425 4.03911 26.7425H3.79102V25.67H4.04687C5.18657 25.67 6.34953 25.1299 6.69842 24.4355H3.91506V23.3553H6.83797C6.76044 22.7689 6.58212 22.5837 6.58212 22.5837H8.11723Z" fill="#004C98"/>
<path d="M12.3041 28.1622V27.082H2.86084V28.1622H6.84592V28.5712C5.45812 28.8103 4.57427 29.7285 4.57427 30.8241C4.57427 32.1049 5.77599 33.1388 7.59021 33.1388C9.39668 33.1388 10.6062 32.1049 10.6062 30.8241C10.6062 29.7285 9.7223 28.8181 8.32675 28.5712V28.1622H12.3041ZM9.13307 30.8241C9.13307 31.5031 8.4353 32.0509 7.58246 32.0509C6.72962 32.0509 6.03184 31.5031 6.03184 30.8241C6.03184 30.1529 6.72187 29.5973 7.58246 29.5973C8.44305 29.5973 9.13307 30.1529 9.13307 30.8241Z" fill="#004C98"/>
<path d="M20.1269 24.8831V23.2011C20.1269 22.9696 19.9409 22.7844 19.7083 22.7844H18.6461V26.4108C18.4445 26.5034 18.1422 26.6423 17.3126 26.6423C16.7544 26.6423 14.6688 26.6423 14.6688 26.6423C14.4439 26.6423 14.2579 26.4571 14.2579 26.2333V24.559C14.2579 23.4325 13.9167 23.1162 13.9167 23.1162H12.4824C12.4824 23.1162 12.777 23.4325 12.777 24.559V26.3105C12.777 27.0898 13.4128 27.7147 14.1881 27.7147H16.7621C17.5374 27.7147 18.1422 27.6453 18.6384 27.4524V28.0542H20.1114V25.9556H21.569V24.8831H20.1269Z" fill="#004C98"/>
<path d="M14.2578 31.4491C14.2578 32.2206 14.8936 32.8533 15.6766 32.8533H20.1269V28.4399H14.2578V31.4491ZM15.7386 29.5278H18.6616V31.7885H16.1573C15.9325 31.7885 15.7386 31.6034 15.7386 31.3719V29.5278Z" fill="#004C98"/>
<path d="M43.9287 29.9675H38.9977L38.5713 30.6619H43.4945L43.9287 29.9675Z" fill="#E60012"/>
<path d="M43.2466 31.0632H38.3234L37.897 31.7654H42.8202L43.2466 31.0632Z" fill="#E60012"/>
<path d="M29.896 23.3708C29.7952 23.1394 29.5859 22.9928 29.3921 23.0082H24.686L24.2518 23.9418L25.2519 23.9495C25.314 23.9572 25.376 24.0035 25.3992 24.073C25.4225 24.1347 25.4147 24.2118 25.376 24.2658L23.2749 29.3273H27.6321L29.8805 23.9572C29.9348 23.8106 29.9813 23.5792 29.896 23.3708Z" fill="#E60012"/>
<path d="M35.6563 23.3708C35.5556 23.1394 35.3462 22.9928 35.1524 23.0082H30.4463L30.0121 23.9418H31.0122C31.0743 23.9495 31.1363 23.9958 31.1596 24.0652C31.1828 24.127 31.1751 24.2041 31.1363 24.2581L29.043 29.3273H33.4002L35.6486 23.9572C35.7029 23.8106 35.7494 23.5792 35.6563 23.3708Z" fill="#E60012"/>
<path d="M27.1278 30.5232L27.4457 29.7671H23.0962L22.7783 30.5232H27.1278Z" fill="#E60012"/>
<path d="M21.8247 32.8609H26.1432L26.4688 32.0894H22.1348L21.8247 32.8609Z" fill="#E60012"/>
<path d="M22.6235 30.9397L22.3057 31.6958H26.6241L26.9498 30.9397H22.6235Z" fill="#E60012"/>
<path d="M32.8886 30.5232L33.2065 29.7671H28.857L28.5469 30.5232H32.8886Z" fill="#E60012"/>
<path d="M27.5854 32.8609H31.9039L32.2295 32.0894H27.9033L27.5854 32.8609Z" fill="#E60012"/>
<path d="M28.3838 30.9397L28.0659 31.6958H32.3921L32.71 30.9397H28.3838Z" fill="#E60012"/>
<path d="M47.9448 18.286C46.5337 17.0669 43.8202 17.1518 40.6259 19.0421C39.0055 19.9294 37.9201 20.8785 36.4858 22.6916C35.5942 23.8181 34.4312 26.7655 36.0051 28.3781C37.1603 29.2345 38.3853 28.9953 39.8661 28.6018L39.2304 29.628L44.2311 29.6203L48.0921 23.224C48.0921 23.224 50.1777 20.0529 47.9448 18.286Z" fill="#E60012"/>
<path d="M41.2851 25.3691L41.1068 26.6653C41.1068 26.673 41.1068 26.673 41.1068 26.673L43.3475 23.0467C43.3475 23.0467 43.3552 23.0389 43.363 23.0235V23.0158C43.4715 22.8461 43.9599 22.0359 43.2622 21.6038C43.2622 21.6038 42.9753 21.4187 42.4403 21.5653C42.169 21.627 41.8434 21.8044 41.572 21.9819C41.4169 22.0745 41.2619 22.1748 41.1223 22.2905C41.0991 22.306 40.9828 22.3985 40.9828 22.3985C40.4013 22.8615 39.8198 23.579 39.6958 24.2272C39.6958 24.2272 39.6803 24.2889 39.6725 24.3738C39.6725 24.3815 39.6725 24.3969 39.6725 24.4123C39.6415 24.8213 39.688 26.0403 41.2851 25.3691Z" fill="white"/>
<path d="M13.4129 8.62611C15.6225 9.92234 17.7391 8.04744 17.5995 5.93335C15.8318 6.74349 14.0874 7.32217 12.4282 7.73881C12.6841 8.07059 13.0019 8.37921 13.4129 8.62611Z" fill="#6FBA2C"/>
<path d="M24.3599 1.54313C25.2437 2.93967 24.9801 4.6294 26.4377 5.64786C27.4843 6.37313 29.1978 5.8639 29.8103 4.76828C30.0351 4.37478 30.1359 3.93499 30.1281 3.48748C28.7248 2.51531 27.337 1.35796 26.0113 0H25.9958C25.4608 0.555527 24.9181 1.05705 24.3599 1.54313C24.3676 1.54313 24.3676 1.54313 24.3599 1.54313Z" fill="#0093D4"/>
<path d="M6.4273 14.0812C6.90024 16.4267 5.72953 17.7692 4.46578 18.6334C3.93857 18.996 4.10914 19.0809 4.69062 18.9729C5.36513 18.8494 11.3583 18.2399 11.0791 14.1274C10.831 10.4934 5.74503 10.7017 6.4273 14.0812Z" fill="#F39800"/>
<path d="M5.00041 11.319C5.07794 11.3807 5.71369 11.8668 5.30278 11.0335C4.82209 10.0768 4.70579 9.33607 4.74456 8.67252C3.83745 8.67252 3.06214 8.63394 2.44189 8.58765C3.38777 10.1462 4.79883 11.1647 5.00041 11.319Z" fill="#F39800"/>
<path d="M17.7158 8.1709C17.3824 8.47953 17.6382 8.50268 17.9251 8.40237C20.9565 7.39162 22.5769 6.11854 23.3755 5.14636C24.2206 4.12018 24.1741 2.95512 23.6934 2.12183C22.1505 3.39491 20.5611 4.42109 18.964 5.25438C18.995 6.18026 18.8477 7.12929 17.7158 8.1709Z" fill="#EB6100"/>
<path d="M14.3044 10.8869C13.6531 14.2895 11.6063 14.6213 11.3892 17.1829C11.0558 21.0099 17.1342 20.6549 17.0412 17.4915C16.9714 15.0919 14.9401 14.413 14.6067 10.9332C14.5835 10.6554 14.3354 10.7172 14.3044 10.8869Z" fill="#0093D4"/>
<path d="M23.8639 6.65096C21.065 7.05217 21.3751 9.10454 16.4287 9.93011C16.0255 9.99955 16.134 10.2465 16.4054 10.2696C21.0883 10.5937 22.4683 13.217 24.7632 12.7926C28.5157 12.0982 27.7094 6.08771 23.8639 6.65096Z" fill="#B963A4"/>
<path d="M21.8169 13.0858C19.6383 11.3112 18.6537 13.0317 16.2502 11.3883C15.9014 11.1491 15.723 11.342 16.0176 11.6506C17.8629 13.5178 16.793 15.8248 18.2505 17.0053C21.0029 19.2351 24.3832 15.1767 21.8169 13.0858Z" fill="#EB6100"/>
<path d="M5.54328 14.4129C5.07034 12.3451 2.75993 11.7356 1.48842 8.50274C1.05425 8.44873 0.806152 8.41016 0.806152 8.41016C1.08526 11.9748 1.27909 15.1922 1.41864 18.1087C3.51197 18.564 6.17903 17.2292 5.54328 14.4129Z" fill="#EB6100"/>
<path d="M6.45813 10.0998C8.60573 11.6584 9.99353 9.31279 12.4745 12.1599C12.8854 12.6305 13.0405 12.4685 12.8079 11.9207C12.2419 10.5936 12.1721 9.1662 11.6527 7.91626C9.38103 8.41778 7.30321 8.61839 5.58203 8.66468C5.68282 9.20478 5.96193 9.71401 6.45813 10.0998Z" fill="#B963A4"/>
<path d="M14.8935 50.0823C13.6685 50.0823 12.8467 50.877 12.8467 52.0575C12.8467 53.2148 13.5987 53.9324 14.8082 53.9324C15.2191 53.9324 15.5758 53.8552 15.7386 53.7858C15.7308 53.7395 15.6378 53.238 15.63 53.1685C15.444 53.238 15.1804 53.2843 14.9323 53.2843C14.1647 53.2843 13.684 52.7982 13.684 52.0189C13.684 51.2242 14.1569 50.7304 14.9245 50.7304C15.1183 50.7304 15.2734 50.7535 15.4129 50.7921C15.5835 50.8307 15.661 50.7304 15.6921 50.6301C15.7386 50.4681 15.7851 50.2752 15.7928 50.2443C15.6378 50.1671 15.3199 50.0823 14.8935 50.0823Z" fill="#CCCCCC"/>
<path d="M27.6472 51.3938C27.6472 51.2781 27.5541 51.1855 27.4378 51.1855C27.213 51.1855 26.9882 51.1855 26.9882 51.1855L26.9571 51.5096C26.9571 51.5096 26.7633 51.1238 26.1586 51.1238C25.4531 51.1238 24.9336 51.7179 24.9336 52.5435C24.9336 53.315 25.3988 53.8474 26.0655 53.8474C26.616 53.8474 26.8564 53.4925 26.8564 53.4925C26.8564 54.0403 26.7633 54.4569 26.1121 54.4569C25.8019 54.4569 25.5151 54.3566 25.329 54.264C25.3135 54.3258 25.1894 54.8041 25.1739 54.8504C25.4065 54.9739 25.7632 55.0433 26.1276 55.0433C27.1432 55.0433 27.6394 54.5804 27.6394 53.5002V51.3938H27.6472ZM26.8486 52.6746C26.8486 52.9292 26.7401 53.2764 26.3291 53.2764C25.9725 53.2764 25.7399 52.9678 25.7399 52.5126C25.7399 52.0265 25.9803 51.7025 26.3369 51.7025C26.7246 51.7025 26.8486 52.0574 26.8486 52.2657V52.6746Z" fill="#CCCCCC"/>
<path d="M32.1517 51.1238C31.609 51.1238 31.2446 51.2935 31.1205 51.3553C31.136 51.3938 31.2446 51.7796 31.2601 51.8336C31.4306 51.741 31.702 51.6484 32.0044 51.6484C32.4075 51.6484 32.5626 51.8336 32.5393 52.096C31.6167 52.096 30.9189 52.3737 30.9189 53.1144C30.9189 53.5156 31.2136 53.9246 31.7795 53.9246C32.3223 53.9246 32.6091 53.5851 32.6091 53.5851C32.6091 53.5851 32.6556 53.8165 32.6556 53.8628C32.7022 53.8628 33.1751 53.8628 33.3224 53.8628V52.2734C33.3224 51.5096 32.927 51.1238 32.1517 51.1238ZM32.5626 52.8984C32.5626 53.1916 32.3378 53.3922 32.0664 53.3922C31.8416 53.3922 31.6943 53.2533 31.6943 53.0373C31.6943 52.6746 32.0742 52.5743 32.5626 52.5743V52.8984Z" fill="#CCCCCC"/>
<path d="M17.7622 51.1239C17.1807 51.1239 16.9326 51.5174 16.9326 51.5174V50.7226C16.9326 50.1131 16.7543 49.9434 16.7543 49.9434H15.979C15.979 49.9434 16.1418 50.1131 16.1418 50.7226C16.1418 51.6948 16.1418 53.8629 16.1418 53.8629H16.9326V52.2658C16.9326 52.0497 17.0722 51.7488 17.4211 51.7488C17.6382 51.7488 17.9018 51.8646 17.9018 52.3892V53.8706H18.6926V52.3043C18.7003 51.5559 18.3592 51.1239 17.7622 51.1239Z" fill="#CCCCCC"/>
<path d="M21.4447 51.1855C21.2199 51.1855 20.8943 51.1855 20.8632 51.1855C20.8632 51.2473 20.8632 52.7904 20.8632 52.7904C20.8632 53.045 20.6772 53.3074 20.3671 53.3074C20.15 53.3074 19.9019 53.1916 19.9019 52.6361C19.9019 52.6361 19.9019 52.0343 19.9019 51.9725C19.9019 51.363 19.7235 51.1933 19.7235 51.1933H18.9482C18.9482 51.1933 19.1111 51.363 19.1111 51.9725C19.1111 52.3738 19.1111 52.775 19.1111 52.775C19.1111 53.5234 19.4444 53.94 20.0492 53.94C20.6927 53.94 20.9563 53.4925 20.9563 53.4925L20.9951 53.8783H21.6541C21.6541 53.8783 21.6541 51.7797 21.6541 51.4016C21.6463 51.2781 21.5533 51.1855 21.4447 51.1855Z" fill="#CCCCCC"/>
<path d="M23.6931 51.1238C23.2124 51.1238 22.9411 51.4247 22.8558 51.5481C22.8015 51.2781 22.7085 51.1855 22.7085 51.1855H21.9409C21.9409 51.1855 22.096 51.3552 22.096 51.9648V53.8705H22.8868V52.3197C22.8868 52.0805 23.0186 51.7565 23.3907 51.7565C23.7009 51.7565 23.8559 51.9725 23.8559 52.3814V53.8705H24.6467V52.2811C24.6467 51.5559 24.2901 51.1238 23.6931 51.1238Z" fill="#CCCCCC"/>
<path d="M29.694 51.1238C29.2133 51.1238 28.9419 51.4247 28.8489 51.5481C28.7946 51.2781 28.7016 51.1855 28.7016 51.1855H27.9263C27.9263 51.1855 28.0891 51.3552 28.0891 51.9648V53.8705H28.8799V52.3197C28.8799 52.0805 29.0117 51.7565 29.3761 51.7565C29.6785 51.7565 29.8413 51.9725 29.8413 52.3814V53.8705H30.6321V52.2811C30.6476 51.5559 30.291 51.1238 29.694 51.1238Z" fill="#CCCCCC"/>
<path d="M36.9819 51.1238C36.2919 51.1238 36.0981 51.5944 36.0981 51.5944C36.0981 51.5944 35.9197 51.1238 35.3305 51.1238C34.8963 51.1238 34.656 51.3475 34.5242 51.5404C34.4699 51.2781 34.3769 51.1855 34.3769 51.1855H33.6016C33.6016 51.1855 33.7644 51.3552 33.7644 51.9648V53.8705H34.5397V52.3043C34.5397 52.1114 34.6482 51.7487 35.0049 51.7487C35.284 51.7487 35.439 51.9725 35.439 52.3583C35.439 52.3583 35.439 53.8088 35.439 53.8628C35.5011 53.8628 36.1523 53.8628 36.2143 53.8628C36.2143 53.8011 36.2143 52.2888 36.2143 52.2888C36.2143 52.0805 36.3151 51.7487 36.6718 51.7487C36.8734 51.7487 37.1137 51.8645 37.1137 52.4123C37.1137 52.4123 37.1137 53.8088 37.1137 53.8705C37.168 53.8705 37.827 53.8705 37.8813 53.8705C37.8813 53.8088 37.8813 52.2888 37.8813 52.2888C37.8735 51.5481 37.5479 51.1238 36.9819 51.1238Z" fill="#CCCCCC"/>
<path d="M50.8059 38.3931C41.7503 36.3021 33.3382 35.546 26.0116 35.5151C18.6849 35.546 10.2806 36.2944 1.21728 38.3854C1.08548 39.751 0.868394 41.2016 0.643555 42.5132C10.614 40.0519 21.5381 39.6199 26.0116 39.6199C30.4851 39.6199 41.4014 40.0442 51.3796 42.5132C51.1548 41.2016 50.9377 39.7587 50.8059 38.3931Z" fill="#004C98"/>
<path d="M50.8059 38.3931C41.7503 36.3021 33.3382 35.546 26.0116 35.5151C18.6849 35.546 10.2806 36.2944 1.21728 38.3854C1.08548 39.751 0.868394 41.2016 0.643555 42.5132C10.614 40.0519 21.5381 39.6199 26.0116 39.6199C30.4851 39.6199 41.4014 40.0442 51.3796 42.5132C51.1548 41.2016 50.9377 39.7587 50.8059 38.3931Z" fill="#004C98"/>
<path d="M77.178 21.29H80.104V30.508H69.786C69.4047 30.508 69.0453 30.4347 68.708 30.288C68.3707 30.1413 68.0773 29.9433 67.828 29.694C67.5787 29.4447 67.3807 29.1513 67.234 28.814C67.0873 28.462 67.014 28.0953 67.014 27.714V24.172C67.014 23.6147 66.9773 23.1527 66.904 22.786C66.8453 22.4047 66.7793 22.104 66.706 21.884C66.618 21.62 66.5227 21.422 66.42 21.29H69.258C69.3753 21.4073 69.478 21.5833 69.566 21.818C69.6393 22.0233 69.7053 22.2873 69.764 22.61C69.8373 22.9327 69.8887 23.3433 69.918 23.842H77.178V21.29ZM75.198 41.288H72.294V34.622H64.704V32.466H82.678V34.622H75.198V41.288ZM70.732 28.374H77.178V25.976H69.918V27.56C69.918 27.78 69.9913 27.9707 70.138 28.132C70.2993 28.2933 70.4973 28.374 70.732 28.374ZM100.671 21.972V40.54H97.7674V33.148H94.4894C94.0054 34.0573 93.3821 34.7833 92.6194 35.326C91.8714 35.854 91.0428 36.118 90.1334 36.118C89.4001 36.118 88.7034 35.9347 88.0434 35.568C87.3981 35.2013 86.8334 34.7027 86.3494 34.072C85.8654 33.4413 85.4841 32.708 85.2054 31.872C84.9268 31.0213 84.7874 30.112 84.7874 29.144C84.7874 28.176 84.9268 27.274 85.2054 26.438C85.4841 25.5873 85.8654 24.8467 86.3494 24.216C86.8334 23.5853 87.3981 23.0867 88.0434 22.72C88.7034 22.3533 89.4001 22.17 90.1334 22.17C91.0134 22.17 91.8274 22.434 92.5754 22.962C93.3234 23.4753 93.9468 24.1647 94.4454 25.03H97.7674V21.158H99.8574C100.077 21.158 100.268 21.2387 100.429 21.4C100.591 21.5467 100.671 21.7373 100.671 21.972ZM90.1334 34.05C90.4708 34.05 90.7861 33.9253 91.0794 33.676C91.3728 33.412 91.6294 33.0527 91.8494 32.598C92.0694 32.158 92.2454 31.6447 92.3774 31.058C92.5094 30.4567 92.5754 29.8187 92.5754 29.144C92.5754 28.4693 92.5094 27.8313 92.3774 27.23C92.2454 26.6287 92.0694 26.1007 91.8494 25.646C91.6294 25.206 91.3728 24.8613 91.0794 24.612C90.7861 24.348 90.4708 24.216 90.1334 24.216C89.7961 24.216 89.4734 24.348 89.1654 24.612C88.8721 24.8613 88.6154 25.206 88.3954 25.646C88.1754 26.1007 87.9994 26.6287 87.8674 27.23C87.7354 27.8313 87.6694 28.4693 87.6694 29.144C87.6694 29.8187 87.7354 30.4567 87.8674 31.058C87.9994 31.6447 88.1754 32.158 88.3954 32.598C88.6154 33.0527 88.8721 33.412 89.1654 33.676C89.4734 33.9253 89.7961 34.05 90.1334 34.05ZM95.4794 29.144C95.4794 29.804 95.4134 30.4273 95.2814 31.014H97.7674V27.164H95.2594C95.3328 27.4867 95.3841 27.8167 95.4134 28.154C95.4574 28.4767 95.4794 28.8067 95.4794 29.144ZM112.945 24.634V25.536C113.033 26.3133 113.253 26.966 113.605 27.494C113.972 28.022 114.39 28.4473 114.859 28.77C115.314 29.1073 115.761 29.364 116.201 29.54C116.656 29.7013 117.015 29.804 117.279 29.848C117.396 29.8773 117.528 29.8993 117.675 29.914C117.836 29.9287 117.983 29.9507 118.115 29.98C118.276 30.0093 118.423 30.0313 118.555 30.046V32.202C118.306 32.1873 118.071 32.1653 117.851 32.136C117.66 32.1067 117.47 32.0847 117.279 32.07C117.088 32.0407 116.942 32.0113 116.839 31.982C116.428 31.894 115.981 31.7693 115.497 31.608C115.028 31.4467 114.558 31.2413 114.089 30.992C113.605 30.7427 113.136 30.4493 112.681 30.112C112.226 29.76 111.816 29.3493 111.449 28.88C111.082 29.3493 110.672 29.76 110.217 30.112C109.762 30.4493 109.293 30.7427 108.809 30.992C108.325 31.2413 107.848 31.4467 107.379 31.608C106.91 31.7693 106.47 31.894 106.059 31.982C105.942 32.0113 105.788 32.0407 105.597 32.07C105.421 32.0847 105.238 32.1067 105.047 32.136C104.827 32.1653 104.6 32.1873 104.365 32.202V30.046C104.512 30.0313 104.658 30.0093 104.805 29.98C104.922 29.9507 105.054 29.9287 105.201 29.914C105.348 29.8993 105.487 29.8773 105.619 29.848C105.81 29.8187 106.052 29.76 106.345 29.672C106.638 29.5693 106.954 29.43 107.291 29.254C107.614 29.078 107.936 28.858 108.259 28.594C108.596 28.33 108.897 28.0073 109.161 27.626C109.425 27.2593 109.63 26.8267 109.777 26.328C109.924 25.8293 109.99 25.2647 109.975 24.634C109.975 24.0767 109.938 23.6147 109.865 23.248C109.806 22.8813 109.74 22.588 109.667 22.368C109.579 22.104 109.484 21.906 109.381 21.774H112.263C112.38 21.906 112.49 22.104 112.593 22.368C112.681 22.588 112.762 22.8813 112.835 23.248C112.908 23.6147 112.945 24.0767 112.945 24.634ZM112.945 36.624H119.391V38.758H103.419V36.624H110.041V32.598H112.945V36.624ZM130.546 31.872C131.352 31.872 132.115 32.004 132.834 32.268C133.552 32.5173 134.183 32.862 134.726 33.302C135.268 33.742 135.694 34.2627 136.002 34.864C136.31 35.4507 136.464 36.0813 136.464 36.756C136.464 37.4307 136.31 38.0687 136.002 38.67C135.694 39.2567 135.268 39.7773 134.726 40.232C134.183 40.672 133.552 41.0167 132.834 41.266C132.115 41.53 131.352 41.662 130.546 41.662C129.724 41.662 128.954 41.53 128.236 41.266C127.532 41.0167 126.916 40.672 126.388 40.232C125.845 39.7773 125.42 39.2567 125.112 38.67C124.804 38.0687 124.65 37.4307 124.65 36.756C124.65 36.0813 124.804 35.4507 125.112 34.864C125.42 34.2627 125.845 33.742 126.388 33.302C126.916 32.862 127.532 32.5173 128.236 32.268C128.954 32.004 129.724 31.872 130.546 31.872ZM128.5 21.708H131.404V31.19H124.584C124.202 31.19 123.836 31.1167 123.484 30.97C123.146 30.8233 122.853 30.6253 122.604 30.376C122.354 30.1267 122.156 29.8333 122.01 29.496C121.863 29.144 121.79 28.7773 121.79 28.396V24.568C121.79 24.0107 121.76 23.5487 121.702 23.182C121.643 22.8153 121.577 22.522 121.504 22.302C121.416 22.038 121.32 21.8327 121.218 21.686H124.034C124.151 21.8327 124.261 22.0307 124.364 22.28C124.452 22.4853 124.525 22.764 124.584 23.116C124.657 23.468 124.701 23.908 124.716 24.436H128.5V21.708ZM133.516 31.828V21.158H135.606C135.84 21.158 136.031 21.2387 136.178 21.4C136.339 21.5467 136.42 21.7373 136.42 21.972V25.052H139.302V27.186H136.42V31.828H133.516ZM130.546 39.55C130.956 39.55 131.345 39.4767 131.712 39.33C132.078 39.1833 132.401 38.9853 132.68 38.736C132.958 38.4867 133.171 38.1933 133.318 37.856C133.479 37.504 133.56 37.1373 133.56 36.756C133.56 36.3747 133.479 36.0153 133.318 35.678C133.171 35.3407 132.958 35.04 132.68 34.776C132.401 34.5267 132.078 34.3287 131.712 34.182C131.345 34.0353 130.956 33.962 130.546 33.962C130.135 33.962 129.746 34.0353 129.38 34.182C129.013 34.3287 128.698 34.5267 128.434 34.776C128.155 35.04 127.935 35.3407 127.774 35.678C127.612 36.0153 127.532 36.3747 127.532 36.756C127.532 37.1373 127.612 37.504 127.774 37.856C127.935 38.1933 128.155 38.4867 128.434 38.736C128.698 38.9853 129.013 39.1833 129.38 39.33C129.746 39.4767 130.135 39.55 130.546 39.55ZM125.53 29.056H128.5V26.57H124.716V28.242C124.716 28.4767 124.789 28.6747 124.936 28.836C125.097 28.9827 125.295 29.056 125.53 29.056ZM156.635 21.972V40.518H153.731V29.144H150.123V27.01H153.731V21.136H155.821C156.056 21.136 156.246 21.2167 156.393 21.378C156.554 21.5393 156.635 21.7373 156.635 21.972ZM147.395 25.272V26.46C147.424 27.5893 147.527 28.5427 147.703 29.32C147.894 30.0973 148.158 30.7647 148.495 31.322C148.832 31.8793 149.236 32.3487 149.705 32.73C150.189 33.1113 150.746 33.4633 151.377 33.786L151.641 33.874V36.052L151.069 35.898C150.688 35.7807 150.27 35.6267 149.815 35.436C149.36 35.2307 148.906 34.9667 148.451 34.644C147.996 34.3213 147.549 33.9253 147.109 33.456C146.684 32.9867 146.295 32.422 145.943 31.762C145.606 32.4367 145.224 33.016 144.799 33.5C144.388 33.9693 143.963 34.3653 143.523 34.688C143.083 35.0253 142.643 35.2967 142.203 35.502C141.778 35.6927 141.382 35.8467 141.015 35.964L140.553 36.052V33.874L140.707 33.852C141.294 33.544 141.814 33.1993 142.269 32.818C142.724 32.422 143.105 31.938 143.413 31.366C143.721 30.8087 143.956 30.134 144.117 29.342C144.293 28.55 144.396 27.5967 144.425 26.482V25.272C144.425 24.7147 144.388 24.2527 144.315 23.886C144.256 23.5047 144.19 23.204 144.117 22.984C144.029 22.72 143.934 22.522 143.831 22.39H146.713C146.83 22.522 146.933 22.698 147.021 22.918C147.094 23.1233 147.168 23.3873 147.241 23.71C147.314 24.018 147.366 24.4213 147.395 24.92V25.272Z" fill="#004C98"/>
</svg>
